<svg width="25" height="24" viewBox="0 0 25 24" fill="none" xmlns="http://www.w3.org/2000/svg">
<path d="M12.75 6.43994V9.76994" stroke="#001F3F" stroke-width="1.5" stroke-miterlimit="10" stroke-linecap="round"/>
<path d="M12.7709 2C9.09087 2 6.11087 4.98 6.11087 8.66V10.76C6.11087 11.44 5.83087 12.46 5.48087 13.04L4.21087 15.16C3.43087 16.47 3.97087 17.93 5.41087 18.41C10.1909 20 15.3609 20 20.1409 18.41C21.4909 17.96 22.0709 16.38 21.3409 15.16L20.0709 13.04C19.7209 12.46 19.4409 11.43 19.4409 10.76V8.66C19.4309 5 16.4309 2 12.7709 2Z" stroke="#001F3F" stroke-width="1.5" stroke-miterlimit="10" stroke-linecap="round"/>
<path d="M16.0799 18.8199C16.0799 20.6499 14.5799 22.1499 12.7499 22.1499C11.8399 22.1499 10.9999 21.7699 10.3999 21.1699C9.79992 20.5699 9.41992 19.7299 9.41992 18.8199" stroke="#001F3F" stroke-width="1.5" stroke-miterlimit="10"/>
</svg>
