<svg width="17" height="22" viewBox="0 0 17 22" fill="none" xmlns="http://www.w3.org/2000/svg">
<path d="M8.5 16.2526C8.67324 16.2526 8.81774 16.1932 8.9335 16.0744C9.04926 15.9556 9.10714 15.8078 9.10714 15.6308V9.83109C9.10714 9.65413 9.04886 9.50625 8.93229 9.38745C8.81571 9.26865 8.67121 9.20883 8.49879 9.208C8.32636 9.20717 8.18226 9.26698 8.0665 9.38745C7.95074 9.50791 7.89286 9.65579 7.89286 9.83109V15.6308C7.89286 15.8069 7.95114 15.9548 8.06771 16.0744C8.18429 16.1941 8.32879 16.2539 8.50121 16.2539M8.5 7.24278C8.7121 7.24278 8.88979 7.16925 9.03307 7.02221C9.17555 6.87516 9.24679 6.69322 9.24679 6.47638C9.24679 6.25871 9.17514 6.07636 9.03186 5.92931C8.88857 5.78226 8.71129 5.70915 8.5 5.70998C8.28871 5.71081 8.11143 5.78434 7.96814 5.93055C7.82486 6.07677 7.75321 6.25913 7.75321 6.47763C7.75321 6.69612 7.82486 6.87806 7.96814 7.02345C8.11143 7.16884 8.28871 7.24195 8.5 7.24278ZM8.5 22C8.3899 22 8.27374 21.9896 8.1515 21.9688C8.02926 21.9481 7.91593 21.9169 7.8115 21.8754C5.42098 20.9408 3.52143 19.3556 2.11286 17.12C0.704286 14.8843 0 12.4643 0 9.85975V4.52237C0 4.09535 0.118596 3.7107 0.355786 3.36842C0.592167 3.02613 0.898572 2.77814 1.275 2.62445L7.81393 0.132095C8.05031 0.0440315 8.279 0 8.5 0C8.721 0 8.9501 0.0440315 9.18729 0.132095L15.725 2.62445C16.1006 2.77897 16.407 3.02696 16.6442 3.36842C16.8814 3.7107 17 4.09535 17 4.52237V9.85975C17 12.4643 16.2957 14.8843 14.8871 17.12C13.4786 19.3556 11.5794 20.9408 9.18971 21.8754C9.08367 21.9169 8.96993 21.9481 8.8485 21.9688C8.72707 21.9896 8.6109 22 8.5 22ZM8.5 20.8261C10.6048 20.1407 12.3452 18.7699 13.7214 16.7137C15.0976 14.6575 15.7857 12.3729 15.7857 9.85975V4.4987C15.7857 4.33919 15.7428 4.19546 15.657 4.06752C15.572 3.93958 15.4514 3.84404 15.2951 3.7809L8.75743 1.28855C8.67971 1.25532 8.5939 1.2387 8.5 1.2387C8.4061 1.2387 8.32029 1.25532 8.24257 1.28855L1.70486 3.7809C1.54862 3.84404 1.428 3.93958 1.343 4.06752C1.25719 4.19546 1.21429 4.33919 1.21429 4.4987V9.85975C1.21429 12.3729 1.90238 14.6575 3.27857 16.7137C4.65476 18.7699 6.39524 20.1407 8.5 20.8261Z" fill="#535974"/>
</svg>
