<svg width="14" height="14" viewBox="0 0 14 14" fill="none" xmlns="http://www.w3.org/2000/svg">
<path fill-rule="evenodd" clip-rule="evenodd" d="M9.84342 1.16667C9.84342 0.884771 9.6149 0.65625 9.33301 0.65625C9.05111 0.65625 8.82259 0.884771 8.82259 1.16667V1.82292H5.17676V1.16667C5.17676 0.884771 4.94824 0.65625 4.66634 0.65625C4.38445 0.65625 4.15592 0.884771 4.15592 1.16667V1.82292H2.91634C1.99011 1.82292 1.23926 2.57377 1.23926 3.5V11.6667C1.23926 12.5929 1.99011 13.3438 2.91634 13.3438H11.083C12.0092 13.3438 12.7601 12.5929 12.7601 11.6667V3.5C12.7601 2.57377 12.0092 1.82292 11.083 1.82292H9.84342V1.16667ZM11.7393 5.32292V3.5C11.7393 3.13756 11.4454 2.84375 11.083 2.84375H9.84342V3.5C9.84342 3.7819 9.6149 4.01042 9.33301 4.01042C9.05111 4.01042 8.82259 3.7819 8.82259 3.5V2.84375H5.17676V3.5C5.17676 3.7819 4.94824 4.01042 4.66634 4.01042C4.38445 4.01042 4.15592 3.7819 4.15592 3.5V2.84375H2.91634C2.5539 2.84375 2.26009 3.13756 2.26009 3.5V5.32292H11.7393ZM2.26009 6.34375H11.7393V11.6667C11.7393 12.0291 11.4454 12.3229 11.083 12.3229H2.91634C2.5539 12.3229 2.26009 12.0291 2.26009 11.6667V6.34375Z" fill="#212121" fill-opacity="0.7"/>
</svg>
