<svg width="17" height="17" viewBox="0 0 17 17" fill="none" xmlns="http://www.w3.org/2000/svg">
<path fill-rule="evenodd" clip-rule="evenodd" d="M1.23958 0.733398C0.910825 0.733398 0.595532 0.863997 0.363065 1.09646C0.130598 1.32893 0 1.64422 0 1.97298L0 8.70214C0 9.38639 0.555333 9.94172 1.23958 9.94172H2.125V11.0347C2.12507 11.2387 2.18564 11.4382 2.29904 11.6079C2.41245 11.7775 2.57361 11.9097 2.76214 11.9878C2.95068 12.0659 3.15813 12.0863 3.35828 12.0466C3.55843 12.0068 3.74229 11.9085 3.88662 11.7643L5.70987 9.94172H10.0937C10.4225 9.94172 10.7378 9.81113 10.9703 9.57866C11.2027 9.34619 11.3333 9.0309 11.3333 8.70214V1.97298C11.3333 1.64422 11.2027 1.32893 10.9703 1.09646C10.7378 0.863997 10.4225 0.733398 10.0937 0.733398H1.23958ZM1.0625 1.97298C1.0625 1.92602 1.08116 1.88097 1.11437 1.84776C1.14758 1.81455 1.19262 1.7959 1.23958 1.7959H10.0937C10.1407 1.7959 10.1857 1.81455 10.219 1.84776C10.2522 1.88097 10.2708 1.92602 10.2708 1.97298V8.70214C10.2708 8.74911 10.2522 8.79415 10.219 8.82736C10.1857 8.86057 10.1407 8.87922 10.0937 8.87922H5.48958C5.34873 8.87935 5.2137 8.9354 5.11416 9.03506L3.1875 10.9617V9.41047C3.1875 9.26958 3.13153 9.13445 3.0319 9.03482C2.93227 8.9352 2.79714 8.87922 2.65625 8.87922H1.23958C1.19262 8.87922 1.14758 8.86057 1.11437 8.82736C1.08116 8.79415 1.0625 8.74911 1.0625 8.70214V1.97298Z" fill="#535974"/>
<path d="M15.9375 6.22298C15.9375 6.17602 15.9188 6.13097 15.8856 6.09776C15.8524 6.06455 15.8074 6.0459 15.7604 6.0459H13.2812C13.1403 6.0459 13.0052 5.98993 12.9056 5.8903C12.806 5.79067 12.75 5.65554 12.75 5.51465C12.75 5.37375 12.806 5.23863 12.9056 5.139C13.0052 5.03937 13.1403 4.9834 13.2812 4.9834H15.7604C16.4447 4.9834 17 5.53873 17 6.22298V12.9521C17 13.2809 16.8694 13.5962 16.6369 13.8287C16.4045 14.0611 16.0892 14.1917 15.7604 14.1917H14.875V15.2847C14.8749 15.4887 14.8144 15.6882 14.7009 15.8579C14.5875 16.0275 14.4264 16.1597 14.2378 16.2378C14.0493 16.3159 13.8419 16.3363 13.6417 16.2966C13.4416 16.2568 13.2577 16.1585 13.1134 16.0143L11.2901 14.1917H7.61458C7.28582 14.1917 6.97053 14.0611 6.73806 13.8287C6.5056 13.5962 6.375 13.2809 6.375 12.9521V11.9144C6.375 11.7735 6.43097 11.6384 6.5306 11.5388C6.63023 11.4392 6.76535 11.3832 6.90625 11.3832C7.04715 11.3832 7.18227 11.4392 7.2819 11.5388C7.38153 11.6384 7.4375 11.7735 7.4375 11.9144V12.9521C7.4375 13.0499 7.51683 13.1292 7.61458 13.1292H11.5104C11.6513 13.1293 11.7863 13.1854 11.8858 13.2851L13.8125 15.2117V13.6605C13.8125 13.5196 13.8685 13.3845 13.9681 13.2848C14.0677 13.1852 14.2028 13.1292 14.3437 13.1292H15.7604C15.8074 13.1292 15.8524 13.1106 15.8856 13.0774C15.9188 13.0441 15.9375 12.9991 15.9375 12.9521V6.22298Z" fill="#535974"/>
</svg>
