<svg width="19" height="17" viewBox="0 0 19 17" fill="none" xmlns="http://www.w3.org/2000/svg">
<path d="M4.64453 16.4287V14.0001C4.64453 11.3176 6.81915 9.14294 9.50167 9.14294C12.1842 9.14294 14.3588 11.3176 14.3588 14.0001V16.4287" stroke="#535974" stroke-linecap="round" stroke-linejoin="round"/>
<path d="M9.50056 6.71437C11.1771 6.71437 12.5363 5.35524 12.5363 3.67866C12.5363 2.00208 11.1771 0.642944 9.50056 0.642944C7.82398 0.642944 6.46484 2.00208 6.46484 3.67866C6.46484 5.35524 7.82398 6.71437 9.50056 6.71437Z" stroke="#535974" stroke-linecap="round" stroke-linejoin="round"/>
<path d="M18 15.2143V14C18 12.9921 17.5932 12.0814 16.9314 11.4257C16.2757 10.7639 15.365 10.3571 14.3571 10.3571C13.8714 10.3571 13.41 10.4482 12.9911 10.6243M12.5236 3.90927C12.9668 3.3932 13.6225 3.07141 14.3571 3.07141C15.6989 3.07141 16.7857 4.1582 16.7857 5.49998C16.7857 6.84177 15.6989 7.92855 14.3571 7.92855C13.0154 7.92855 11.9286 6.84177 11.9286 5.49998M6.00893 10.6243C5.59 10.4482 5.12857 10.3571 4.64286 10.3571C2.63321 10.3571 1 11.9903 1 14V15.2143M6.47643 3.90927C6.03929 3.39927 5.40179 3.08355 4.67929 3.07141H4.64286C3.30107 3.07141 2.21429 4.1582 2.21429 5.49998C2.21429 6.84177 3.30107 7.92855 4.64286 7.92855C5.26821 7.92855 5.83893 7.69177 6.27 7.29713C6.76179 6.85998 7.07143 6.21641 7.07143 5.49998" stroke="#535974" stroke-linecap="round" stroke-linejoin="round"/>
</svg>
