<svg width="82" height="82" viewBox="0 0 82 82" fill="none" xmlns="http://www.w3.org/2000/svg">
<path fill-rule="evenodd" clip-rule="evenodd" d="M11.8273 43.237L25.0197 53.4997L3.41304 75.1064C1.90758 73.108 0.863201 70.8011 0.35485 68.3513L0.351471 68.348C0.264139 67.8946 0.19425 67.4381 0.14196 66.9794C0.128443 66.8611 0.101409 66.7428 0.0878922 66.6212C0.0295529 66.0339 0.000231453 65.444 3.34547e-05 64.8539V55.0609L11.8273 43.237ZM55.9936 31.447L82 51.3843V64.8539C82.0049 67.1069 81.5647 69.3387 80.7048 71.4212C79.8448 73.5037 78.582 75.3958 76.9889 76.9889C75.3958 78.582 73.5036 79.8448 71.4212 80.7048C69.3387 81.5647 67.1069 82.0049 64.8538 82H17.1461C16.6224 82 16.1087 81.9696 15.5985 81.9222C15.091 81.8761 14.5859 81.8074 14.0846 81.7161C13.892 81.6823 13.6994 81.6519 13.5067 81.608H13.4932C12.7712 81.4459 12.0601 81.2382 11.3643 80.9862L11.1109 80.895C10.0463 80.4933 9.02506 79.985 8.06283 79.3777L55.9936 31.447ZM29.2268 15.6965C29.8774 15.6911 30.5225 15.8153 31.1246 16.0618C31.7267 16.3084 32.2736 16.6724 32.7335 17.1326C33.1934 17.5928 33.557 18.14 33.8032 18.7422C34.0493 19.3445 34.1731 19.9897 34.1672 20.6403C34.1726 21.2905 34.0485 21.9354 33.8022 22.5372C33.5558 23.1391 33.1921 23.6859 32.7323 24.1457C32.2724 24.6055 31.7257 24.9692 31.1238 25.2156C30.522 25.462 29.8771 25.5861 29.2268 25.5807C28.5763 25.5865 27.931 25.4628 27.3288 25.2166C26.7266 24.9704 26.1794 24.6068 25.7192 24.1469C25.259 23.687 24.895 23.1401 24.6484 22.538C24.4018 21.936 24.2776 21.2908 24.283 20.6403C24.283 17.8794 26.466 15.6965 29.2268 15.6965ZM29.2268 9.38749C26.2468 9.40083 23.3927 10.5908 21.2859 12.6983C19.179 14.8058 17.9899 17.6603 17.9774 20.6403C17.9899 23.6196 19.1792 26.4734 21.2863 28.5798C23.3933 30.6863 26.2474 31.8747 29.2268 31.8863C32.2056 31.8738 35.0589 30.685 37.1652 28.5786C39.2715 26.4723 40.4604 23.6191 40.4728 20.6403C40.4604 17.6608 39.2718 14.8069 37.1656 12.6995C35.0595 10.5921 32.2062 9.40172 29.2268 9.38749ZM17.1461 4.04561e-05H64.8538C67.1066 -0.00485834 69.3381 0.435183 71.4204 1.29491C73.5026 2.15464 75.3946 3.41712 76.9877 5.0099C78.5808 6.60268 79.8437 8.4944 80.7038 10.5765C81.5639 12.6586 82.0044 14.89 82 17.1428V43.4364L57.6392 24.7595C57.0319 24.2948 56.2767 24.0661 55.5136 24.1158C54.7506 24.1655 54.0314 24.4903 53.4896 25.0299L29.5141 49.0053L13.5 36.5462C12.9116 36.0908 12.1821 35.8564 11.4387 35.8839C10.6462 35.9172 9.89503 36.2463 9.33341 36.8064L3.34547e-05 46.1432V17.1428C-0.00442132 14.89 0.43606 12.6586 1.2962 10.5765C2.15633 8.4944 3.41919 6.60268 5.01229 5.0099C6.60538 3.41712 8.49735 2.15464 10.5796 1.29491C12.6619 0.435183 14.8934 -0.00485834 17.1461 4.04561e-05Z" fill="#0B067C"/>
</svg>
