<svg width="88" height="83" viewBox="0 0 88 83" fill="none" xmlns="http://www.w3.org/2000/svg">
<path d="M27.1792 41.5C22.2292 41.6544 18.1806 43.6306 15.0333 47.4286H8.89168C6.38611 47.4286 4.27777 46.8033 2.56668 45.5527C0.855561 44.3022 0 42.4727 0 40.0642C0 29.1643 1.89444 23.7143 5.68332 23.7143C5.86665 23.7143 6.53123 24.0385 7.67707 24.6869C8.8229 25.3354 10.3125 25.9916 12.1458 26.6554C13.9791 27.3193 15.7972 27.6512 17.6 27.6512C19.6472 27.6512 21.6791 27.2961 23.6958 26.586C23.5431 27.7284 23.4667 28.7474 23.4667 29.6429C23.4667 33.9349 24.7042 37.8873 27.1792 41.5ZM76.2667 71.0039C76.2667 74.7092 75.1514 77.6349 72.9208 79.781C70.6903 81.927 67.7264 83 64.0292 83H23.9708C20.2736 83 17.3097 81.927 15.0792 79.781C12.8486 77.6349 11.7333 74.7092 11.7333 71.0039C11.7333 69.3674 11.7868 67.7694 11.8937 66.2101C12.0007 64.6507 12.2146 62.9679 12.5354 61.1615C12.8563 59.3552 13.2611 57.68 13.75 56.1361C14.2389 54.5923 14.8958 53.087 15.7208 51.6202C16.5458 50.1535 17.493 48.903 18.5625 47.8686C19.632 46.8342 20.9382 46.0082 22.4812 45.3906C24.0243 44.7731 25.7278 44.4643 27.5917 44.4643C27.8972 44.4643 28.5542 44.7962 29.5625 45.4601C30.5708 46.124 31.6861 46.8651 32.9083 47.6833C34.1306 48.5016 35.7653 49.2426 37.8125 49.9065C39.8597 50.5704 41.9222 50.9024 44 50.9024C46.0778 50.9024 48.1403 50.5704 50.1875 49.9065C52.2347 49.2426 53.8694 48.5016 55.0917 47.6833C56.3139 46.8651 57.4292 46.124 58.4375 45.4601C59.4458 44.7962 60.1028 44.4643 60.4083 44.4643C62.2722 44.4643 63.9757 44.7731 65.5187 45.3906C67.0618 46.0082 68.368 46.8342 69.4375 47.8686C70.507 48.903 71.4542 50.1535 72.2792 51.6202C73.1042 53.087 73.7611 54.5923 74.25 56.1361C74.7389 57.68 75.1437 59.3552 75.4646 61.1615C75.7854 62.9679 75.9993 64.6507 76.1062 66.2101C76.2132 67.7694 76.2667 69.3674 76.2667 71.0039ZM29.3333 11.8572C29.3333 15.1302 28.1875 17.9247 25.8958 20.2405C23.6042 22.5564 20.8389 23.7143 17.6 23.7143C14.3611 23.7143 11.5958 22.5564 9.30418 20.2405C7.01252 17.9247 5.86668 15.1302 5.86668 11.8572C5.86668 8.58408 7.01252 5.78962 9.30418 3.47377C11.5958 1.15792 14.3611 0 17.6 0C20.8389 0 23.6042 1.15792 25.8958 3.47377C28.1875 5.78962 29.3333 8.58408 29.3333 11.8572ZM61.6 29.6429C61.6 34.5525 59.8812 38.7442 56.4437 42.2179C53.0062 45.6917 48.8583 47.4286 44 47.4286C39.1417 47.4286 34.9937 45.6917 31.5562 42.2179C28.1187 38.7442 26.4 34.5525 26.4 29.6429C26.4 24.7333 28.1187 20.5416 31.5562 17.0678C34.9937 13.5941 39.1417 11.8572 44 11.8572C48.8583 11.8572 53.0062 13.5941 56.4437 17.0678C59.8812 20.5416 61.6 24.7333 61.6 29.6429ZM88 40.0642C88 42.4727 87.1444 44.3022 85.4333 45.5527C83.7222 46.8033 81.6139 47.4286 79.1083 47.4286H72.9667C69.8194 43.6306 65.7708 41.6544 60.8208 41.5C63.2958 37.8873 64.5333 33.9349 64.5333 29.6429C64.5333 28.7474 64.4569 27.7284 64.3042 26.586C66.3208 27.2961 68.3528 27.6512 70.4 27.6512C72.2028 27.6512 74.0209 27.3193 75.8542 26.6554C77.6875 25.9916 79.1771 25.3354 80.3229 24.6869C81.4688 24.0385 82.1333 23.7143 82.3167 23.7143C86.1056 23.7143 88 29.1643 88 40.0642ZM82.1333 11.8572C82.1333 15.1302 80.9875 17.9247 78.6958 20.2405C76.4041 22.5564 73.6389 23.7143 70.4 23.7143C67.1611 23.7143 64.3959 22.5564 62.1042 20.2405C59.8125 17.9247 58.6667 15.1302 58.6667 11.8572C58.6667 8.58408 59.8125 5.78962 62.1042 3.47377C64.3959 1.15792 67.1611 0 70.4 0C73.6389 0 76.4041 1.15792 78.6958 3.47377C80.9875 5.78962 82.1333 8.58408 82.1333 11.8572Z" fill="#0B067C"/>
</svg>
