<svg width="16" height="17" viewBox="0 0 16 17" fill="none" xmlns="http://www.w3.org/2000/svg">
<path d="M5.42105 15.9996H3C1.89543 15.9996 1 15.1042 1 13.9996V7.9195C1 7.33565 1.25513 6.78095 1.69842 6.40099L6.69842 2.11528C7.4474 1.47329 8.5526 1.47329 9.30158 2.11528L14.3016 6.40099C14.7449 6.78095 15 7.33565 15 7.9195V13.9996C15 15.1042 14.1046 15.9996 13 15.9996H10.5789M5.42105 15.9996V10.4996C5.42105 9.67121 6.09263 8.99963 6.92105 8.99963H9.07895C9.90737 8.99963 10.5789 9.67121 10.5789 10.4996V15.9996M5.42105 15.9996H10.5789" stroke="#535974" stroke-width="1.3"/>
</svg>
