<svg width="17" height="16" viewBox="0 0 17 16" fill="none" xmlns="http://www.w3.org/2000/svg">
<g opacity="0.6">
<path d="M2.47903 15.5834C2.40159 15.5834 2.32628 15.5581 2.26465 15.5112C2.20301 15.4643 2.15846 15.3985 2.13781 15.3239C2.11716 15.2492 2.12157 15.1699 2.15034 15.098C2.17912 15.0261 2.23068 14.9656 2.29712 14.9258L16.4532 6.43219C16.4931 6.40623 16.5378 6.38858 16.5846 6.38029C16.6315 6.372 16.6795 6.37324 16.7259 6.38394C16.7722 6.39463 16.8159 6.41456 16.8544 6.44254C16.8929 6.47051 16.9253 6.50595 16.9498 6.54675C16.9743 6.58755 16.9903 6.63286 16.9968 6.67998C17.0034 6.72709 17.0004 6.77505 16.988 6.82098C16.9756 6.86691 16.9541 6.90987 16.9247 6.94729C16.8953 6.98471 16.8587 7.01583 16.817 7.03878L2.66093 15.5324C2.60618 15.5659 2.54321 15.5836 2.47903 15.5834Z" fill="#535974"/>
<path d="M8.49551 11.6905C8.43446 11.6905 8.37446 11.6747 8.32139 11.6445L0.181627 7.04378C0.140845 7.02105 0.104962 6.99048 0.0760461 6.95383C0.0471304 6.91717 0.0257533 6.87516 0.0131464 6.8302C0.000539494 6.78525 -0.00304808 6.73825 0.00259036 6.6919C0.0082288 6.64555 0.0229818 6.60078 0.0459995 6.56016C0.0690172 6.51954 0.0998446 6.48388 0.136706 6.45523C0.173567 6.42657 0.215733 6.4055 0.260776 6.39321C0.305818 6.38092 0.352846 6.37767 0.399151 6.38364C0.445455 6.38961 0.490121 6.40468 0.530575 6.42799L8.67033 11.0287C8.73835 11.0673 8.79169 11.1272 8.82202 11.1993C8.85235 11.2714 8.85797 11.3514 8.83801 11.427C8.81804 11.5026 8.77361 11.5694 8.71165 11.6171C8.64968 11.6648 8.57368 11.6906 8.49551 11.6905Z" fill="#535974"/>
<path d="M15.9276 15.5834H1.06366C0.478306 15.5834 0.00195312 15.107 0.00195312 14.5217V6.7422C0.00195312 6.18304 0.270211 5.65077 0.720375 5.31881L7.44452 0.349307C7.7483 0.122525 8.11723 0 8.49632 0C8.87541 0 9.24435 0.122525 9.54812 0.349307L12.3687 2.4345C12.406 2.46211 12.4376 2.49679 12.4615 2.53658C12.4854 2.57637 12.5012 2.62047 12.5081 2.66638C12.515 2.71229 12.5127 2.75911 12.5015 2.80415C12.4903 2.84919 12.4703 2.89158 12.4427 2.9289C12.4151 2.96622 12.3804 2.99774 12.3406 3.02165C12.3008 3.04557 12.2567 3.06141 12.2108 3.06828C12.1649 3.07515 12.1181 3.07291 12.073 3.06168C12.028 3.05046 11.9856 3.03047 11.9483 3.00287L9.12698 0.917675C8.9449 0.781546 8.72366 0.707986 8.49632 0.707986C8.26898 0.707986 8.04774 0.781546 7.86567 0.917675L1.1401 5.88859C0.871138 6.08748 0.709758 6.4067 0.709758 6.7422V14.5217C0.709758 14.6155 0.747044 14.7056 0.813414 14.7719C0.879783 14.8383 0.9698 14.8756 1.06366 14.8756H15.9276C16.0214 14.8756 16.1114 14.8383 16.1778 14.7719C16.2442 14.7056 16.2815 14.6155 16.2815 14.5217V6.7422C16.2815 6.4067 16.1201 6.08748 15.8511 5.88859L12.763 3.60521C12.6926 3.54768 12.6471 3.46528 12.6358 3.37509C12.6246 3.28491 12.6484 3.19384 12.7025 3.12077C12.7565 3.04771 12.8366 2.99823 12.9262 2.98261C13.0157 2.96698 13.1078 2.9864 13.1834 3.03684L16.2716 5.32022C16.4939 5.48477 16.6746 5.69908 16.7992 5.946C16.9239 6.19293 16.989 6.46561 16.9893 6.7422V14.5217C16.9893 15.107 16.5129 15.5834 15.9276 15.5834Z" fill="#535974"/>
<path d="M8.49361 8.15149C8.39971 8.15151 8.30963 8.11436 8.24305 8.04816L5.76573 5.57084C5.69938 5.50447 5.66211 5.41447 5.66211 5.32063C5.66211 5.22679 5.69938 5.13679 5.76573 5.07042L6.47353 4.36261C6.5399 4.29627 6.6299 4.259 6.72374 4.259C6.81758 4.259 6.90758 4.29627 6.97395 4.36261L8.49361 5.88156L13.5516 0.823589C13.6179 0.757242 13.708 0.719971 13.8018 0.719971C13.8956 0.719971 13.9856 0.757242 14.052 0.823589L14.7598 1.53139C14.8262 1.59776 14.8634 1.68776 14.8634 1.7816C14.8634 1.87545 14.8262 1.96545 14.7598 2.03181L8.74346 8.04816C8.71067 8.08098 8.67171 8.107 8.62884 8.12473C8.58596 8.14247 8.54001 8.15156 8.49361 8.15149ZM6.51671 5.32027L8.49361 7.29717L14.0095 1.78125L13.8021 1.57386L8.74417 6.63184C8.6778 6.69818 8.5878 6.73545 8.49396 6.73545C8.40012 6.73545 8.31012 6.69818 8.24375 6.63184L6.7241 5.11289L6.51671 5.32027Z" fill="#535974"/>
</g>
</svg>
