<svg width="82" height="74" viewBox="0 0 82 74" fill="none" xmlns="http://www.w3.org/2000/svg">
<path d="M37.5 42.5C36.5 41.6 36 40.3 36 39C36 37.9 36.4 36.9 37 36H45C46.5 38 46.3 40.7 44.5 42.5C42.6 44.5 39.4 44.5 37.5 42.5ZM47.4 45.3C45.6 47.1 43.3 48 41 48C38.7 48 36.4 47.1 34.6 45.4C32.9 43.7 32 41.4 32 39C32 38 32.2 37 32.5 36H0V68C0 71.3 2.7 74 6 74H76C79.3 74 82 71.3 82 68V36H49.5C50.6 39.2 49.9 42.8 47.4 45.3ZM76 12H6C2.7 12 0 14.7 0 18V32H82V18C82 14.7 79.3 12 76 12ZM55 0H27V8H55V0Z" fill="#0B067C"/>
</svg>
