<svg width="17" height="17" viewBox="0 0 17 17" fill="none" xmlns="http://www.w3.org/2000/svg">
<path fill-rule="evenodd" clip-rule="evenodd" d="M2.78468 2.58483C3.37927 2.50439 4.10737 2.49029 4.98307 2.48863C5.0351 1.8115 5.34085 1.17898 5.83916 0.71757C6.33747 0.25616 6.99161 -0.000115444 7.67073 3.90121e-08H9.32927C10.0081 7.73967e-05 10.6619 0.256331 11.16 0.717547C11.6582 1.17876 11.9639 1.81097 12.0161 2.4878C12.8926 2.49029 13.6207 2.50439 14.2153 2.58483C14.9617 2.68434 15.5902 2.89995 16.0895 3.39834C16.5887 3.89756 16.8026 4.52615 16.9038 5.27249C17 5.99146 17 6.90615 17 8.03976V11.448C17 12.5817 17 13.4963 16.9038 14.2153C16.8026 14.9617 16.5887 15.5902 16.0895 16.0895C15.5902 16.5887 14.9617 16.8026 14.2153 16.9038C13.4963 17 12.5817 17 11.448 17H5.55195C4.41834 17 3.50366 17 2.78468 16.9038C2.03834 16.8026 1.40976 16.5887 0.910537 16.0895C0.411317 15.5902 0.197366 14.9617 0.0970244 14.2153C-1.23571e-08 13.4963 0 12.5817 0 11.448V8.03976C0 6.90615 -1.23571e-08 5.99146 0.0970244 5.27249C0.196537 4.52615 0.412146 3.89756 0.910537 3.39834C1.40976 2.89912 2.03834 2.68517 2.78468 2.58483ZM10.7656 2.4878H6.23444C6.28429 2.14242 6.45692 1.82657 6.72071 1.59812C6.9845 1.36966 7.32177 1.24391 7.67073 1.2439H9.32927C9.67823 1.24391 10.0155 1.36966 10.2793 1.59812C10.5431 1.82657 10.7157 2.14242 10.7656 2.4878ZM2.95054 15.6707C2.34185 15.5886 2.0201 15.4385 1.79039 15.2096C1.56068 14.9799 1.41141 14.6581 1.32932 14.0486C1.24556 13.4225 1.2439 12.5924 1.2439 11.4024V8.60781C4.30224 9.89151 6.08849 10.5931 7.96927 10.681C8.32254 10.6976 8.67746 10.6976 9.03073 10.681C10.9115 10.5931 12.6978 9.89151 15.7561 8.60781V11.4024C15.7561 12.5924 15.7544 13.4225 15.6707 14.0495C15.5886 14.6581 15.4385 14.9799 15.2096 15.2096C14.9799 15.4393 14.6581 15.5886 14.0486 15.6707C13.4225 15.7544 12.5924 15.7561 11.4024 15.7561H5.59756C4.40756 15.7561 3.57663 15.7544 2.95054 15.6707ZM15.7544 7.25859C12.3337 8.69737 10.6884 9.35829 8.97268 9.4379C8.65756 9.45283 8.34244 9.45283 8.02732 9.4379C6.31073 9.35829 4.66629 8.69737 1.24556 7.25859C1.24971 6.49317 1.26629 5.90854 1.32932 5.43834C1.41141 4.82966 1.56151 4.5079 1.79039 4.27819C2.0201 4.04849 2.34185 3.89922 2.95137 3.81712C3.57663 3.73337 4.40756 3.73171 5.59756 3.73171H11.4024C12.5924 3.73171 13.4225 3.73337 14.0495 3.81712C14.6581 3.89922 14.9799 4.04932 15.2096 4.27819C15.4393 4.5079 15.5886 4.82966 15.6707 5.43917C15.7337 5.90854 15.7503 6.49234 15.7544 7.25859Z" fill="#535974"/>
</svg>
