<svg width="19" height="18" viewBox="0 0 19 18" fill="none" xmlns="http://www.w3.org/2000/svg">
<path fill-rule="evenodd" clip-rule="evenodd" d="M0 3.97631C0 3.85633 0.0476614 3.74126 0.132499 3.65643C0.217337 3.57159 0.332402 3.52393 0.452381 3.52393H18.5476C18.6676 3.52393 18.7827 3.57159 18.8675 3.65643C18.9523 3.74126 19 3.85633 19 3.97631V10.3096C19 10.4199 18.9597 10.5263 18.8867 10.609C18.8137 10.6916 18.7131 10.7447 18.6037 10.7584L11.3656 11.6632L11.2534 10.7656L18.0952 9.91064V4.42869H0.904762V9.91064L7.74657 10.7656L7.63438 11.6632L0.396286 10.7584C0.286895 10.7447 0.18626 10.6916 0.113288 10.609C0.0403168 10.5263 3.11128e-05 10.4199 0 10.3096V3.97631Z" fill="#535974"/>
<path fill-rule="evenodd" clip-rule="evenodd" d="M7.23875 8.95243C7.23875 8.83245 7.28641 8.71738 7.37125 8.63254C7.45608 8.54771 7.57115 8.50005 7.69113 8.50005H11.3102C11.4302 8.50005 11.5452 8.54771 11.6301 8.63254C11.7149 8.71738 11.7626 8.83245 11.7626 8.95243V13.4762C11.7626 13.5962 11.7149 13.7113 11.6301 13.7961C11.5452 13.881 11.4302 13.9286 11.3102 13.9286H7.69113C7.57115 13.9286 7.45608 13.881 7.37125 13.7961C7.28641 13.7113 7.23875 13.5962 7.23875 13.4762V8.95243ZM8.14351 9.40481V13.0239H10.8578V9.40481H8.14351ZM6.33398 2.61909C6.33398 2.13918 6.52463 1.67892 6.86398 1.33957C7.20333 1.00022 7.66359 0.80957 8.14351 0.80957H10.8578C11.3377 0.80957 11.798 1.00022 12.1373 1.33957C12.4767 1.67892 12.6673 2.13918 12.6673 2.61909V3.97624H11.7626V2.61909C11.7626 2.37914 11.6672 2.14901 11.4976 1.97933C11.3279 1.80965 11.0978 1.71433 10.8578 1.71433H8.14351C7.90355 1.71433 7.67342 1.80965 7.50374 1.97933C7.33407 2.14901 7.23875 2.37914 7.23875 2.61909V3.97624H6.33398V2.61909Z" fill="#535974"/>
<path fill-rule="evenodd" clip-rule="evenodd" d="M0.904297 17.5477V10.762H1.80906V17.0953H17.19V10.762H18.0948V17.5477C18.0948 17.6677 18.0471 17.7827 17.9623 17.8676C17.8774 17.9524 17.7624 18.0001 17.6424 18.0001H1.35668C1.2367 18.0001 1.12163 17.9524 1.0368 17.8676C0.951958 17.7827 0.904297 17.6677 0.904297 17.5477Z" fill="#535974"/>
</svg>
