<svg width="99" height="104" viewBox="0 0 99 104" fill="none" xmlns="http://www.w3.org/2000/svg">
<path d="M38.9346 41.4684L42.9004 45.5494C43.1308 45.7962 43.4434 45.9279 43.7725 45.9279C44.1017 45.9279 44.4143 45.7962 44.6447 45.5659L47.8206 42.3899L43.3118 39.1152C42.851 39.6418 42.2751 40.119 41.551 40.4811C40.8434 40.8431 39.9548 41.1557 38.9346 41.4684ZM54.3865 45.9279C54.732 45.9279 55.0447 45.7962 55.2586 45.5659L59.2409 41.4849C58.2206 41.1557 57.3156 40.8431 56.6244 40.4975C55.9004 40.1355 55.3244 39.6583 54.8472 39.1152L50.3219 42.4064L53.4979 45.5823C53.7447 45.8127 54.0574 45.9279 54.3865 45.9279Z" fill="#0B067C"/>
<path d="M49.087 0C38.1933 0 30.5908 9.57721 30.5908 23.3013C30.5908 29.4557 32.0554 35.7582 34.7047 41.1228C35.6427 40.7937 36.5807 40.4975 37.4364 40.2177C38.8187 39.7899 40.0035 39.4114 40.8263 39.0164C42.8668 37.9797 43.4263 35.643 43.5744 34.0633C39.625 31.8582 36.8934 27.2177 36.8934 21.8532C36.9921 18.0848 37.5845 14.6127 38.6541 11.4861C38.9668 10.5481 39.7402 9.82405 40.7275 9.56076C41.7642 9.29747 42.8668 9.57721 43.6731 10.3013C45.4832 11.9962 48.5275 13.9215 52.7731 13.4937C55.2744 13.2139 57.249 13.7899 58.6313 15.1721C60.968 17.5089 60.6718 21.3595 60.6225 21.8532C60.606 26.9215 58.1706 31.3481 54.5668 33.6848C54.6655 35.3633 55.1756 37.9139 57.3642 39.0164C58.1706 39.4114 59.3554 39.7899 60.7541 40.2177C60.8528 40.2506 60.968 40.2835 61.0832 40.3164C61.8402 40.5633 62.6465 40.8266 63.4693 41.1063C66.1187 35.7418 67.5832 29.4557 67.5832 23.2848C67.5832 9.57721 59.9807 0 49.087 0Z" fill="#0B067C"/>
<path d="M58.978 21.8202C58.978 21.7873 58.978 21.7544 58.978 21.7214C58.978 21.6885 59.34 18.2164 57.4476 16.324C56.4438 15.3202 54.9299 14.9088 52.9387 15.1227C48.0678 15.6164 44.5957 13.4278 42.5387 11.5025C42.259 11.2392 41.8805 11.0911 41.502 11.0911C41.3704 11.0911 41.2552 11.1075 41.1235 11.1404C40.6792 11.2556 40.3337 11.5683 40.202 11.9961C39.1653 15.0075 38.6223 18.2328 38.5235 21.8531C38.5235 28.4189 43.1147 33.7835 48.7425 33.7835C54.3704 33.7835 58.978 28.4354 58.978 21.8202ZM45.04 20.586H42.7197C42.259 20.586 41.897 20.224 41.897 19.7632C41.897 19.3025 42.259 18.9404 42.7197 18.9404H45.04C45.5008 18.9404 45.8628 19.3025 45.8628 19.7632C45.8628 20.224 45.5008 20.586 45.04 20.586ZM51.5729 28.9126C51.0957 30.048 50.0096 30.7885 48.7754 30.7885C47.5413 30.7885 46.4387 30.048 45.978 28.9126C45.8134 28.4847 46.0109 28.0075 46.4223 27.843C46.8501 27.6784 47.3273 27.8759 47.4919 28.2873C47.9197 29.324 49.6147 29.324 50.0425 28.2873C50.2235 27.8594 50.7008 27.6619 51.1121 27.843C51.5564 28.0075 51.7539 28.5012 51.5729 28.9126ZM52.5109 20.586C52.0501 20.586 51.6881 20.224 51.6881 19.7632C51.6881 19.3025 52.0501 18.9404 52.5109 18.9404H54.8311C55.2919 18.9404 55.6539 19.3025 55.6539 19.7632C55.6539 20.224 55.2919 20.586 54.8311 20.586H52.5109ZM73.6235 55.0442C73.64 54.7645 73.6564 54.4847 73.6564 54.205C73.6564 52.6417 73.3767 51.243 72.8172 50.0581C70.5792 45.2531 65.2311 43.3607 61.0185 42.0278L56.4438 46.7012C55.9008 47.2607 55.1767 47.5569 54.4033 47.5733H54.3868C53.6134 47.5733 52.9058 47.2771 52.3628 46.7341L49.0881 43.4594L45.797 46.7341C45.2539 47.2771 44.5463 47.5733 43.7729 47.5733H43.7565C42.983 47.5733 42.259 47.2607 41.7159 46.7012L37.1742 42.0278C32.9615 43.3607 27.6134 45.2531 25.3425 50.0581C24.7008 51.4733 24.4375 53.1518 24.5527 55.0442C24.6349 56.3936 25.7375 57.4468 27.0868 57.4468H71.0894C72.4223 57.4303 73.5413 56.3771 73.6235 55.0442ZM66.6792 51.4733H61.7425C61.2818 51.4733 60.9197 51.1113 60.9197 50.6506C60.9197 50.1898 61.2818 49.8278 61.7425 49.8278H66.6792C67.14 49.8278 67.502 50.1898 67.502 50.6506C67.502 51.1113 67.14 51.4733 66.6792 51.4733ZM53.0046 34.5404C51.6881 35.1164 50.2564 35.4619 48.759 35.4619C47.4919 35.4619 46.2742 35.2316 45.1387 34.8037C45.0071 35.7252 44.7438 36.7619 44.2337 37.7657L49.0881 41.2873L53.9425 37.7493C53.383 36.6797 53.1197 35.5442 53.0046 34.5404Z" fill="#0B067C"/>
<path d="M11.4217 75.8772H27.2191C26.9559 74.2317 26.1989 72.7013 24.9976 71.4836C23.4837 69.9861 21.4597 69.1469 19.3204 69.1469C15.3381 69.1633 12.047 72.076 11.4217 75.8772ZM19.3204 90.5557C23.747 90.5557 27.3508 86.9519 27.3508 82.5253V77.5228H11.29V82.5253C11.29 86.9519 14.8938 90.5557 19.3204 90.5557Z" fill="#0B067C"/>
<path d="M36.0216 104C36.7292 104 37.3874 103.671 37.8152 103.111C38.2266 102.585 38.3583 101.91 38.1937 101.285C36.6469 95.5087 32.5001 90.7201 27.0532 88.334C25.2925 90.6707 22.495 92.2011 19.3355 92.2011C16.1266 92.2011 13.2798 90.6214 11.519 88.2024C5.90766 90.5391 1.64563 95.3771 0.0658857 101.285C-0.0986712 101.926 0.0494296 102.585 0.460822 103.128C0.88867 103.687 1.5469 104 2.23804 104H36.0216Z" fill="#0B067C"/>
<path d="M95.9532 104C96.6608 104 97.319 103.671 97.7469 103.111C98.1583 102.585 98.2899 101.91 98.1254 101.285C96.5785 95.5087 92.4317 90.7201 86.9684 88.334C85.2076 90.6872 82.4102 92.2011 79.2507 92.2011C76.0418 92.2011 73.195 90.6214 71.4342 88.2024C65.8393 90.5391 61.5773 95.3771 59.9975 101.285C59.833 101.926 59.9811 102.585 60.3925 103.128C60.8203 103.687 61.4785 104 62.1697 104H95.9532Z" fill="#0B067C"/>
<path d="M79.2501 90.5557C83.6767 90.5557 87.2805 86.9519 87.2805 82.5253V77.5228H71.2197V82.5253C71.2197 86.9519 74.8235 90.5557 79.2501 90.5557ZM71.3514 75.8772H87.1488C86.8855 74.2317 86.1286 72.7013 84.9273 71.4836C83.4134 69.9861 81.3893 69.1469 79.2501 69.1469C75.2678 69.1633 71.9767 72.076 71.3514 75.8772Z" fill="#0B067C"/>
<path d="M70.3001 92.1849C70.152 92.3495 69.9381 92.4318 69.7242 92.4318C69.5102 92.4318 69.2963 92.3495 69.1482 92.1849L51.014 74.1331C50.471 74.4622 49.8128 74.6596 49.1216 74.6596C48.4634 74.6596 47.8052 74.4622 47.2457 74.1166L29.2103 92.0533C29.0622 92.2179 28.8482 92.3001 28.6343 92.3001C28.4204 92.3001 28.2065 92.2179 28.0584 92.0533C27.7292 91.7406 27.7292 91.2141 28.0584 90.9014L46.0938 72.9647C45.7482 72.4052 45.5508 71.747 45.5508 71.0888C45.5508 69.3938 46.7191 67.9786 48.2989 67.6166V53.2672C48.2989 52.8065 48.6609 52.4445 49.1216 52.4445C49.5824 52.4445 49.9444 52.8065 49.9444 53.2672V67.6001C51.5242 67.9622 52.709 69.3938 52.709 71.0888C52.709 71.7634 52.5115 72.4217 52.1659 72.9812L70.3001 91.0331C70.6292 91.3457 70.6292 91.8723 70.3001 92.1849Z" fill="#0B067C"/>
</svg>
