<svg width="17" height="24" viewBox="0 0 17 24" fill="none" xmlns="http://www.w3.org/2000/svg">
<path fill-rule="evenodd" clip-rule="evenodd" d="M8.49986 13.0715C8.17781 13.0715 7.86895 13.1994 7.64123 13.4271C7.41351 13.6548 7.28557 13.9637 7.28557 14.2857C7.28557 14.6078 7.41351 14.9167 7.64123 15.1444C7.86895 15.3721 8.17781 15.5 8.49986 15.5C8.82191 15.5 9.13077 15.3721 9.35849 15.1444C9.58621 14.9167 9.71415 14.6078 9.71415 14.2857C9.71415 13.9637 9.58621 13.6548 9.35849 13.4271C9.13077 13.1994 8.82191 13.0715 8.49986 13.0715ZM6.07129 14.2857C6.07129 13.6417 6.32716 13.0239 6.7826 12.5685C7.23805 12.113 7.85576 11.8572 8.49986 11.8572C9.14396 11.8572 9.76167 12.113 10.2171 12.5685C10.6726 13.0239 10.9284 13.6417 10.9284 14.2857C10.9284 14.9298 10.6726 15.5476 10.2171 16.003C9.76167 16.4585 9.14396 16.7143 8.49986 16.7143C7.85576 16.7143 7.23805 16.4585 6.7826 16.003C6.32716 15.5476 6.07129 14.9298 6.07129 14.2857Z" fill="#535974"/>
<path fill-rule="evenodd" clip-rule="evenodd" d="M5.525 19.1429H11.475C11.3357 18.4566 10.9633 17.8396 10.4212 17.3965C9.87897 16.9533 9.20025 16.7112 8.5 16.7112C7.79975 16.7112 7.12103 16.9533 6.57884 17.3965C6.03666 17.8396 5.66435 18.4566 5.525 19.1429ZM4.25 19.75C4.25 18.6228 4.69777 17.5418 5.4948 16.7448C6.29183 15.9478 7.37283 15.5 8.5 15.5C9.62717 15.5 10.7082 15.9478 11.5052 16.7448C12.3022 17.5418 12.75 18.6228 12.75 19.75C12.75 19.911 12.686 20.0655 12.5722 20.1793C12.4583 20.2932 12.3039 20.3571 12.1429 20.3571H4.85714C4.69612 20.3571 4.54169 20.2932 4.42783 20.1793C4.31397 20.0655 4.25 19.911 4.25 19.75Z" fill="#535974"/>
<path fill-rule="evenodd" clip-rule="evenodd" d="M0 10.6429C0 9.99883 0.255866 9.38111 0.711312 8.92567C1.16676 8.47022 1.78447 8.21436 2.42857 8.21436H14.5714C15.2155 8.21436 15.8332 8.47022 16.2887 8.92567C16.7441 9.38111 17 9.99883 17 10.6429V21.5715C17 22.2156 16.7441 22.8333 16.2887 23.2888C15.8332 23.7442 15.2155 24.0001 14.5714 24.0001H2.42857C1.78447 24.0001 1.16676 23.7442 0.711312 23.2888C0.255866 22.8333 0 22.2156 0 21.5715V10.6429ZM2.42857 9.42864C2.10652 9.42864 1.79766 9.55657 1.56994 9.7843C1.34222 10.012 1.21429 10.3209 1.21429 10.6429V21.5715C1.21429 21.8935 1.34222 22.2024 1.56994 22.4301C1.79766 22.6579 2.10652 22.7858 2.42857 22.7858H14.5714C14.8935 22.7858 15.2023 22.6579 15.4301 22.4301C15.6578 22.2024 15.7857 21.8935 15.7857 21.5715V10.6429C15.7857 10.3209 15.6578 10.012 15.4301 9.7843C15.2023 9.55657 14.8935 9.42864 14.5714 9.42864H2.42857Z" fill="#535974"/>
<path fill-rule="evenodd" clip-rule="evenodd" d="M3.03613 5.78573C3.03613 4.49754 3.54787 3.2621 4.45876 2.35121C5.36965 1.44032 6.60508 0.928589 7.89328 0.928589H9.10756C10.3958 0.928589 11.6312 1.44032 12.5421 2.35121C13.453 3.2621 13.9647 4.49754 13.9647 5.78573V8.82145H12.7504V5.78573C12.7504 4.81959 12.3666 3.89301 11.6835 3.20984C11.0003 2.52667 10.0737 2.14287 9.10756 2.14287H7.89328C6.92713 2.14287 6.00055 2.52667 5.31739 3.20984C4.63422 3.89301 4.25042 4.81959 4.25042 5.78573V8.82145H3.03613V5.78573Z" fill="#535974"/>
</svg>
