<svg width="17" height="21" viewBox="0 0 17 21" fill="none" xmlns="http://www.w3.org/2000/svg">
<path d="M16.236 19.5C16.236 15.898 12.22 12.97 8.618 12.97C5.016 12.97 1 15.898 1 19.5M8.618 9.706C9.77249 9.706 10.8797 9.24738 11.696 8.43104C12.5124 7.61469 12.971 6.50749 12.971 5.353C12.971 4.19851 12.5124 3.09131 11.696 2.27496C10.8797 1.45862 9.77249 1 8.618 1C7.46351 1 6.35631 1.45862 5.53996 2.27496C4.72362 3.09131 4.265 4.19851 4.265 5.353C4.265 6.50749 4.72362 7.61469 5.53996 8.43104C6.35631 9.24738 7.46351 9.706 8.618 9.706Z" stroke="#535974" stroke-width="1.5" stroke-linecap="round" stroke-linejoin="round"/>
</svg>
