<svg width="19" height="21" viewBox="0 0 19 21" fill="none" xmlns="http://www.w3.org/2000/svg">
<path fill-rule="evenodd" clip-rule="evenodd" d="M8.47108 0H10.5289C12.3198 0 13.7385 0 14.8483 0.149442C15.9902 0.303767 16.9149 0.628047 17.6447 1.35865C18.3735 2.09023 18.697 3.01716 18.8509 4.16191C19 5.2754 19 6.69656 19 8.49181V12.5082C19 14.3034 19 15.7256 18.8509 16.8381C18.697 17.9828 18.3735 18.9098 17.6447 19.6413C16.9149 20.372 15.9902 20.6962 14.8483 20.8506C13.7375 21 12.3198 21 10.5289 21H8.47108C6.6802 21 5.26154 21 4.15174 20.8506C3.00979 20.6962 2.08513 20.372 1.35533 19.6413C0.626513 18.9098 0.303026 17.9828 0.149077 16.8381C1.23097e-07 15.7246 0 14.3034 0 12.5082V8.49181C0 6.69656 1.23097e-07 5.27442 0.149077 4.16191C0.303026 3.01716 0.626513 2.09023 1.35533 1.35865C2.08513 0.628047 3.00979 0.303767 4.15174 0.149442C5.26251 0 6.6802 0 8.47108 0ZM4.34564 1.60186C3.36544 1.73372 2.80031 1.98181 2.38718 2.39498C1.976 2.80814 1.72851 3.37465 1.59697 4.35726C1.46251 5.36135 1.46056 6.68386 1.46056 8.54651V12.4535C1.46056 14.3161 1.46251 15.6396 1.59697 16.6437C1.72851 17.6253 1.976 18.1919 2.38815 18.605C2.80031 19.0182 3.36544 19.2663 4.34564 19.3981C5.34728 19.5329 6.66656 19.5349 8.52467 19.5349H10.4734C12.3315 19.5349 13.6517 19.5329 14.6534 19.3981C15.6326 19.2663 16.1977 19.0182 16.6099 18.605C17.0221 18.1919 17.2695 17.6253 17.4011 16.6427C17.5355 15.6396 17.5375 14.3161 17.5375 12.4535V8.54651C17.5375 6.68386 17.5355 5.36135 17.4011 4.35628C17.2695 3.37465 17.0221 2.80814 16.6099 2.39498C16.1977 1.98181 15.6326 1.73372 14.6524 1.60186C13.6517 1.46707 12.3315 1.46512 10.4734 1.46512H8.52467C6.66656 1.46512 5.34826 1.46707 4.34564 1.60186ZM4.87179 8.54651C4.87179 8.35222 4.94879 8.1659 5.08583 8.02851C5.22288 7.89113 5.40875 7.81395 5.60256 7.81395H13.3974C13.5912 7.81395 13.7771 7.89113 13.9142 8.02851C14.0512 8.1659 14.1282 8.35222 14.1282 8.54651C14.1282 8.7408 14.0512 8.92713 13.9142 9.06451C13.7771 9.20189 13.5912 9.27907 13.3974 9.27907H5.60256C5.40875 9.27907 5.22288 9.20189 5.08583 9.06451C4.94879 8.92713 4.87179 8.7408 4.87179 8.54651ZM4.87179 12.4535C4.87179 12.2592 4.94879 12.0729 5.08583 11.9355C5.22288 11.7981 5.40875 11.7209 5.60256 11.7209H10.4744C10.6682 11.7209 10.854 11.7981 10.9911 11.9355C11.1281 12.0729 11.2051 12.2592 11.2051 12.4535C11.2051 12.6478 11.1281 12.8341 10.9911 12.9715C10.854 13.1089 10.6682 13.186 10.4744 13.186H5.60256C5.40875 13.186 5.22288 13.1089 5.08583 12.9715C4.94879 12.8341 4.87179 12.6478 4.87179 12.4535Z" fill="#535974"/>
</svg>
