<svg width="25" height="24" viewBox="0 0 25 24" fill="none" xmlns="http://www.w3.org/2000/svg">
<path d="M8.75 15C11.4424 15 13.625 12.8174 13.625 10.125C13.625 7.43261 11.4424 5.25 8.75 5.25C6.05761 5.25 3.875 7.43261 3.875 10.125C3.875 12.8174 6.05761 15 8.75 15Z" stroke="#5E6670" stroke-width="1.5" stroke-miterlimit="10"/>
<path d="M15.0703 5.43161C15.7408 5.24269 16.4441 5.19966 17.1326 5.3054C17.8212 5.41114 18.4791 5.66321 19.062 6.04462C19.6449 6.42604 20.1393 6.92795 20.512 7.51654C20.8846 8.10513 21.1268 8.76673 21.2221 9.45679C21.3175 10.1469 21.264 10.8493 21.065 11.517C20.866 12.1846 20.5263 12.8018 20.0687 13.327C19.6111 13.8523 19.0463 14.2734 18.4123 14.562C17.7782 14.8506 17.0897 14.9999 16.3931 15" stroke="#5E6670" stroke-width="1.5" stroke-linecap="round" stroke-linejoin="round"/>
<path d="M2 18.5059C2.76138 17.4229 3.77215 16.539 4.94698 15.9288C6.12182 15.3186 7.42623 15.0001 8.75008 15C10.0739 14.9999 11.3784 15.3184 12.5532 15.9285C13.7281 16.5386 14.739 17.4225 15.5004 18.5054" stroke="#5E6670" stroke-width="1.5" stroke-linecap="round" stroke-linejoin="round"/>
<path d="M16.3926 15C17.7166 14.999 19.0213 15.3171 20.1962 15.9273C21.3712 16.5375 22.3819 17.4218 23.1426 18.5054" stroke="#5E6670" stroke-width="1.5" stroke-linecap="round" stroke-linejoin="round"/>
</svg>
